<svg width="32" height="32" viewBox="0 0 32 32" fill="none" xmlns="http://www.w3.org/2000/svg">
<rect width="32" height="32" fill="white"/>
<path d="M2.53719 6.65946C2.53719 3.84131 4.79303 1.55676 7.57576 1.55676H29.3526C29.9658 1.55676 30.4628 2.06013 30.4628 2.68108V30.4432H4.15978C3.26365 30.4432 2.53719 29.7075 2.53719 28.8V6.65946Z" fill="black"/>
<path d="M21.1543 2.85405H23.6309C23.7724 2.85405 23.8871 2.97022 23.8871 3.11351V16.956C23.8871 17.1877 23.7462 17.3954 23.5327 17.4786C23.4116 17.5257 23.2743 17.4931 23.1865 17.3963L20.0014 13.8811L21.1543 2.85405Z" fill="#DDDCED"/>
<path d="M8.80853 9.61169C8.45476 9.21446 8.25895 8.69852 8.25895 8.16358L8.25895 3.07398C8.25895 2.99542 8.35403 2.95755 8.40688 3.01507L29.0831 25.5211C29.1272 25.5691 29.1517 25.6323 29.1517 25.6978V29.2757H26.3209L8.80853 9.61169Z" fill="white"/>
<path d="M3.82865 6.57296C3.82287 4.61632 5.3875 3.02703 7.31956 3.02703L7.36212 29.2312C7.36219 29.2795 7.32329 29.3184 7.27567 29.3178L4.82073 29.2872C4.30757 29.2808 3.89445 28.8585 3.89291 28.3388L3.82865 6.57296Z" fill="white"/>
<path d="M24.9118 3.29389C24.9118 3.05219 25.1075 2.85742 25.3461 2.86152L28.6434 2.91824C28.8763 2.92225 29.0631 3.11465 29.0631 3.35061V23.5004C29.0631 23.6586 28.8708 23.7338 28.7658 23.6166L25.0226 19.4383C24.9513 19.3587 24.9118 19.2551 24.9118 19.1477V3.29389Z" fill="white"/>
<path d="M5.68259 29.2324C5.37061 29.2324 5.16395 28.9046 5.29525 28.618L7.18855 24.4852C7.22705 24.4012 7.35142 24.429 7.35142 24.5216V29.2324H5.68259Z" fill="white"/>
<path d="M8.26194 11.2472C8.26087 11.0906 8.44958 11.0133 8.55635 11.1267L11.1315 13.8619C11.5365 14.292 11.7712 14.858 11.7908 15.452L12.2476 29.2773C10.1102 29.2773 8.3733 27.5305 8.3585 25.3659L8.26194 11.2472Z" fill="#DDDCED"/>
<path d="M20.3535 24.991C20.8631 24.9933 21.3477 25.215 21.6862 25.6009L24.6593 28.9895C24.7572 29.101 24.679 29.2773 24.5316 29.2773H12.2476L11.8888 25.5245C11.8595 25.2186 12.0976 24.9542 12.401 24.9555L20.3535 24.991Z" fill="#DDDCED"/>
<path d="M20.0375 3.71216C20.0411 3.23716 20.4224 2.85405 20.8914 2.85405H21.9176C22.3913 2.85405 22.7745 3.24449 22.7716 3.7242L22.7038 14.9728C22.6996 15.6641 21.8442 15.9717 21.4105 15.4378L20.201 14.1692C20.0457 14.0063 19.9597 13.7881 19.9614 13.5617L20.0375 3.71216Z" fill="#DDDCED"/>
</svg>
