<svg width="453" height="462" viewBox="0 0 453 462" fill="none" xmlns="http://www.w3.org/2000/svg">
<path d="M22.4628 96.1459C22.4628 55.459 55.4272 22.4757 96.0909 22.4757H414.314C423.274 22.4757 430.537 29.7432 430.537 38.7081V439.524H46.1736C33.0785 439.524 22.4628 428.903 22.4628 415.8V96.1459Z" fill="black"/>
<path d="M294.512 41.2054H330.703C332.77 41.2054 334.446 42.8825 334.446 44.9514V244.803C334.446 248.147 332.388 251.146 329.268 252.347C327.498 253.028 325.492 252.557 324.21 251.159L277.665 200.408L294.512 41.2054Z" fill="#DDDCED"/>
<path d="M114.105 138.769C108.936 133.034 106.074 125.585 106.074 117.862L106.074 44.3806C106.074 43.2463 107.464 42.6996 108.236 43.53L410.376 368.461C411.02 369.154 411.378 370.066 411.378 371.013V422.668H370.012L114.105 138.769Z" fill="white"/>
<path d="M41.3348 94.8971C41.2504 66.6481 64.1141 43.7027 92.3471 43.7027L92.969 422.026C92.9701 422.722 92.4017 423.285 91.7057 423.276L55.832 422.834C48.3331 422.742 42.2963 416.645 42.2739 409.141L41.3348 94.8971Z" fill="white"/>
<path d="M349.421 47.5556C349.421 44.0661 352.28 41.254 355.767 41.3132L403.95 42.1321C407.354 42.19 410.084 44.9678 410.084 48.3745V339.287C410.084 341.571 407.273 342.657 405.739 340.965L351.04 280.64C349.998 279.492 349.421 277.996 349.421 276.445V47.5556Z" fill="white"/>
<path d="M68.4263 422.043C63.8673 422.043 60.8474 417.31 62.7661 413.172L90.4327 353.506C90.9953 352.292 92.8126 352.694 92.8126 354.031V422.043H68.4263Z" fill="white"/>
<path d="M106.118 162.382C106.102 160.12 108.86 159.004 110.42 160.641L148.051 200.131C153.969 206.341 157.398 214.512 157.685 223.088L164.36 422.692C133.126 422.692 107.745 397.472 107.529 366.22L106.118 162.382Z" fill="#DDDCED"/>
<path d="M282.81 360.808C290.257 360.841 297.339 364.042 302.285 369.612L345.731 418.536C347.161 420.146 346.018 422.692 343.865 422.692H164.36L159.116 368.51C158.689 364.094 162.168 360.276 166.602 360.296L282.81 360.808Z" fill="#DDDCED"/>
<path d="M278.192 53.5943C278.246 46.7365 283.817 41.2054 290.671 41.2054H305.667C312.589 41.2054 318.189 46.8424 318.146 53.7682L317.155 216.17C317.094 226.15 304.594 230.591 298.256 222.884L280.582 204.567C278.313 202.215 277.056 199.066 277.081 195.797L278.192 53.5943Z" fill="#DDDCED"/>
</svg>
