<svg width="512" height="512" viewBox="0 0 512 512" fill="none" xmlns="http://www.w3.org/2000/svg">
<rect width="512" height="512" fill="white"/>
<path d="M52.4628 121.146C52.4628 80.459 85.4272 47.4757 126.091 47.4757H444.314C453.274 47.4757 460.537 54.7432 460.537 63.7081V464.524H76.1736C63.0785 464.524 52.4628 453.903 52.4628 440.8V121.146Z" fill="black"/>
<path d="M324.512 66.2054H360.703C362.77 66.2054 364.446 67.8825 364.446 69.9514V269.803C364.446 273.147 362.388 276.146 359.268 277.347C357.498 278.028 355.492 277.557 354.21 276.159L307.665 225.408L324.512 66.2054Z" fill="#DDDCED"/>
<path d="M144.105 163.769C138.936 158.034 136.074 150.585 136.074 142.862L136.074 69.3806C136.074 68.2463 137.464 67.6996 138.236 68.53L440.376 393.461C441.02 394.154 441.378 395.066 441.378 396.013V447.668H400.012L144.105 163.769Z" fill="white"/>
<path d="M71.3348 119.897C71.2504 91.6481 94.1141 68.7027 122.347 68.7027L122.969 447.026C122.97 447.722 122.402 448.285 121.706 448.276L85.832 447.834C78.3331 447.742 72.2963 441.645 72.2739 434.141L71.3348 119.897Z" fill="white"/>
<path d="M379.421 72.5556C379.421 69.0661 382.28 66.254 385.767 66.3132L433.95 67.1321C437.354 67.19 440.084 69.9678 440.084 73.3745V364.287C440.084 366.571 437.273 367.657 435.739 365.965L381.04 305.64C379.998 304.492 379.421 302.996 379.421 301.445V72.5556Z" fill="white"/>
<path d="M98.4263 447.043C93.8673 447.043 90.8474 442.31 92.7661 438.172L120.433 378.506C120.995 377.292 122.813 377.694 122.813 379.031V447.043H98.4263Z" fill="white"/>
<path d="M136.118 187.382C136.102 185.12 138.86 184.004 140.42 185.641L178.051 225.131C183.969 231.341 187.398 239.512 187.685 248.088L194.36 447.692C163.126 447.692 137.745 422.472 137.529 391.22L136.118 187.382Z" fill="#DDDCED"/>
<path d="M312.81 385.808C320.257 385.841 327.339 389.042 332.285 394.612L375.731 443.536C377.161 445.146 376.018 447.692 373.865 447.692H194.36L189.116 393.51C188.689 389.094 192.168 385.276 196.602 385.296L312.81 385.808Z" fill="#DDDCED"/>
<path d="M308.192 78.5943C308.246 71.7365 313.817 66.2054 320.671 66.2054H335.667C342.589 66.2054 348.189 71.8424 348.146 78.7682L347.155 241.17C347.094 251.15 334.594 255.591 328.256 247.884L310.582 229.567C308.313 227.215 307.056 224.066 307.081 220.797L308.192 78.5943Z" fill="#DDDCED"/>
</svg>
